<svg width="70" height="70" fill="none" xmlns="http://www.w3.org/2000/svg"><g filter="url(#a)"><path d="M35.3 62.18a26.89 26.89 0 1 0 0-53.78 26.89 26.89 0 0 0 0 53.78Z" fill="#339FBA"/></g><g filter="url(#b)"><circle cx="35.29" cy="35.29" r="20.13" fill="#fff"/><circle cx="35.29" cy="35.29" r="19.63" stroke="#fff"/></g><g filter="url(#c)"><path d="M36.93 55.97s-4.13.05-6.76 0a1.71 1.71 0 0 1-1.63-2.11l1.81-7.6h8.27c.03-.13-.92 4.72-1.6 7.6a1.71 1.71 0 0 0 1.63 2.1c2.62.06 6.55 0 6.55 0" fill="#F1F1F1"/><path d="M39.42 56.82h-3.6a.83.83 0 0 1 0-1.66c2.59.05 9.28 0 9.35 0a.83.83 0 0 1 0 1.66c0-.02-2.99 0-5.75 0Z" fill="#F1F1F1"/><path d="M33.08 56.82h-2.92a2.54 2.54 0 0 1-2.43-3.12c.34-1.42.78-3.32 1.17-4.87l.6-2.52.04-.14v-.04c.24-.7.71-.7.99-.65a.83.83 0 0 1 .63.98v.06l-1.8 7.57a.88.88 0 0 0 .84 1.08c2.59.05 6.7 0 6.73 0a.83.83 0 0 1 0 1.66c-.02-.03-1.85-.01-3.85-.01Z" fill="#AAA"/><path d="M34.23 52.4c.14-.61-.02-1.18-.38-1.26-.35-.1-.76.33-.9.94-.15.62.01 1.18.37 1.27.35.08.76-.34.9-.95Z" fill="#DADADA"/><path d="M15.35 43.86V26.2a5.55 5.55 0 0 0-1.91.2v18.86a17.44 17.44 0 0 0 1.9-1.4ZM38.84 23.06c.53-.8 1.2-1.5 1.99-2.06H25.78a9.96 9.96 0 0 1-1.06 2.06h14.12Z" fill="#F1F1F1"/><path d="M22.26 48.67c4.28-3.33 6.62 1.06 11.26-2.33l.09-.07H15.35v-2.41c-.24.2-.5.39-.78.6-.4.3-.78.57-1.15.8v3.4a1.47 1.47 0 0 0 1.47 1.48h5.92c.4-.56.9-1.05 1.45-1.47ZM15.35 26.2v-3.14h9.34c.44-.64.8-1.33 1.07-2.06H14.92a1.47 1.47 0 0 0-1.48 1.47v3.94a5.55 5.55 0 0 1 1.9-.2ZM53.63 44.06c1.04-1.31 1.19-2.64 1.91-3.9v-9.93c-.6.42-1.24.78-1.9 1.09v12.74Z" fill="#F1F1F1"/><path d="M54.07 21H40.82a7.97 7.97 0 0 0-1.99 2.06h14.8v8.26c.68-.3 1.31-.67 1.91-1.1v-7.75A1.47 1.47 0 0 0 54.07 21ZM44.2 47.68c2.8-2 4.2-.82 6.28-1.42H33.61l-.09.07c-4.65 3.4-6.97-.99-11.26 2.34-.55.41-1.02.9-1.43 1.45H41.9a8.02 8.02 0 0 1 2.3-2.44Z" fill="#F1F1F1"/><path d="M53.63 46.26h-3.15c-2.07.6-3.47-.59-6.28 1.42a8.02 8.02 0 0 0-2.3 2.45h12.17a1.47 1.47 0 0 0 1.47-1.47v-8.5c-.72 1.26-.87 2.59-1.9 3.9v2.2Z" fill="#F1F1F1"/><path d="M41.33 33.86c-5.25 4.08-2.86 8.77-7.72 12.4h16.87a6.8 6.8 0 0 0 3.15-2.2V31.32c-4.72 2.1-7.34-1.3-12.3 2.54Z" fill="#BDE0E9"/><path d="M52.38 45.27c-.57.44-1.21.78-1.9 1h3.15v-2.21a6.8 6.8 0 0 1-1.25 1.2ZM22.62 25.18a8.88 8.88 0 0 0 2.1-2.12h-9.38v3.14c2.24.13 4.29 1.18 7.28-1.02ZM34.43 29.56c-4.38 3.3-5.82.2-10.59 3.63-4.92 3.51-3.79 6.75-8.47 10.66v2.41h18.26c4.86-3.63 2.47-8.32 7.72-12.4 4.96-3.85 7.58-.44 12.3-2.54v-8.26h-14.8c-1.38 2.08-1.42 4.23-4.42 6.5Z" fill="#BDE0E9"/><path d="M22.62 25.18c-2.99 2.2-5.04 1.15-7.28 1.02v17.66c4.68-3.9 3.55-7.13 8.47-10.66 4.78-3.42 6.21-.34 10.6-3.64 3.02-2.26 3.05-4.41 4.42-6.5H24.72a8.88 8.88 0 0 1-2.1 2.12Z" fill="#BDE0E9"/><path d="M50.2 27.02H30.68c-.2 0-.37.16-.37.36v.83c0 .2.17.37.37.37H50.2c.2 0 .36-.17.36-.37v-.83c0-.2-.16-.36-.36-.36ZM50.2 30.88H30.68c-.2 0-.37.16-.37.37v.83c0 .2.17.36.37.36H50.2c.2 0 .36-.16.36-.36v-.83c0-.2-.16-.37-.36-.37Z" fill="#fff"/><path opacity=".52" d="M44.28 34.75h-13.6c-.2 0-.37.16-.37.36v.83c0 .2.17.37.37.37h13.6c.2 0 .36-.16.36-.37v-.83c0-.2-.16-.36-.36-.36Z" fill="#fff"/><path d="M50.2 38.61h-8.5c-.2 0-.37.17-.37.37v4.1c0 .2.16.37.37.37h8.5c.2 0 .36-.17.36-.37v-4.1c0-.2-.16-.37-.36-.37Z" fill="#fff"/><path opacity=".52" d="M39.18 38.61h-8.5c-.2 0-.37.17-.37.37v4.1c0 .2.17.37.37.37h8.5c.2 0 .37-.17.37-.37v-4.1c0-.2-.17-.37-.37-.37Z" fill="#fff"/><path d="M21.19 31.5h.68a2.34 2.34 0 0 1 2 1.14 3.55 3.55 0 0 0 1.28-2.73 3.7 3.7 0 1 0-7.4 0 3.56 3.56 0 0 0 1.38 2.8 2.34 2.34 0 0 1 2.06-1.2Zm-.9-2.8a1.17 1.17 0 0 1 .73-1.07l.69-.28v.58a1.04 1.04 0 0 1 1.04 1.03v1.09a1.04 1.04 0 0 1-1.04 1.03h-.39a1.04 1.04 0 0 1-1.04-1.03l.01-1.34Z" fill="#fff"/><path d="M21.32 31.08h.39a1.04 1.04 0 0 0 1.04-1.03v-1.09a1.04 1.04 0 0 0-1.04-1.03v-.58l-.69.28a1.17 1.17 0 0 0-.72 1.08v1.34a1.04 1.04 0 0 0 1.02 1.03ZM23.86 32.64a2.34 2.34 0 0 0-2-1.13h-.67a2.34 2.34 0 0 0-2.06 1.22 3.78 3.78 0 0 0 4.75-.09h-.02Z" fill="#0A5061"/></g><g filter="url(#d)"><path d="M12.7 36.63 27 39.68l-21.75 9.2 7.46-12.25Z" fill="#319855"/><path d="m27 39.66 5.73 12.83-21.5 9.08-5.74-12.83L27 39.66Z" fill="#2B8449"/><path d="m22.86 39 6.64 14.85-15.05 6.35-6.63-14.85L22.86 39Z" fill="#fff"/><path d="m19.14 50.75 13.7 1.97L27 39.68l-7.87 11.07ZM18.94 50.84 11.08 61.9 5.25 48.88l13.7 1.96Z" fill="#246F3D"/><path opacity=".2" d="m18.39 49.33 14.42 3.34-21.75 9.2 7.33-12.54Z" fill="#000"/><path d="m18.51 49.61 14.3 3.06-21.75 9.2L18.5 49.6Z" fill="#319855"/><path d="m12.67 36.17-7.2 12.59 5.85 13.06 21.15-9.33-5.4-13.06-14.4-3.26Z" stroke="#fff" stroke-width="1.5"/></g><g clip-path="url(#e)"><g filter="url(#f)"><path d="M55.51 32.98a8.96 8.96 0 1 0 0-17.93 8.96 8.96 0 0 0 0 17.93Z" fill="#339FBA"/></g><g filter="url(#g)"><circle cx="55.51" cy="24.01" fill="#FFCD05" r="6.71"/><path d="M61.72 24.01a6.2 6.2 0 1 1-12.41 0 6.2 6.2 0 0 1 12.41 0Z" stroke="#fff"/></g><path d="M50.38 24.33c-.37.08-.68.36-.8.73.18.38.58.63 1 .6.45-.02.85-.36.95-.82a1.1 1.1 0 0 0-1.15-.51ZM60.65 24.33c.37.08.67.36.8.73-.18.38-.58.63-1 .6a1.04 1.04 0 0 1-.95-.82c.25-.4.71-.6 1.15-.51Z" fill="#FFB300"/><path d="M60.47 21.21a3.54 3.54 0 0 0-2.1-.98l.03-.2a3.74 3.74 0 0 1 2.22 1.03l-.15.15ZM60.57 23.14h-.35c.01-.61-.37-1.16-.89-1.28-.3-.07-.62 0-.9.2-.32.23-.52.58-.57.98l-.34-.04c.05-.5.31-.94.71-1.22.36-.25.79-.35 1.18-.26.67.16 1.17.85 1.16 1.62ZM50.5 21.21a3.54 3.54 0 0 1 2.1-.98l-.02-.2a3.74 3.74 0 0 0-2.22 1.03l.15.15ZM50.41 23.14h.35c-.01-.61.37-1.16.89-1.28.3-.07.62 0 .9.2.32.23.52.58.56.98l.35-.04c-.05-.5-.31-.94-.71-1.22a1.48 1.48 0 0 0-1.18-.26c-.67.16-1.17.85-1.16 1.62Z" fill="#231F20"/><path d="M51.14 26.1a4.71 4.71 0 0 0 4.25 2.87 4.73 4.73 0 0 0 4.5-3.3l-8.75.42Z" fill="#953F1B"/><path d="M55.24 28.07a1.53 1.53 0 0 0-.92-.21c-.6.06-.96.47-1.04.56a4.42 4.42 0 0 0 4.18.07 1.96 1.96 0 0 0-1.08-.65c-.6-.13-1.05.17-1.14.23Z" fill="#E00782"/><path d="M55.51 26.9a5.82 5.82 0 0 0 3.37-1.19l-6.52.32c.44.28 1.58.9 3.15.87Z" fill="#fff"/></g><defs><filter id="a" x="6.4" y="7.4" width="57.78" height="57.78" filterUnits="userSpaceOnUse" color-interpolation-filters="sRGB"><feFlood flood-opacity="0" result="BackgroundImageFix"/><feColorMatrix in="SourceAlpha" values="0 0 0 0 0 0 0 0 0 0 0 0 0 0 0 0 0 0 127 0" result="hardAlpha"/><feOffset dy="1"/><feGaussianBlur stdDeviation="1"/><feColorMatrix values="0 0 0 0 0 0 0 0 0 0 0 0 0 0 0 0 0 0 0.25 0"/><feBlend in2="BackgroundImageFix" result="effect1_dropShadow_3220_13316"/><feBlend in="SourceGraphic" in2="effect1_dropShadow_3220_13316" result="shape"/></filter><filter id="b" x="13.17" y="14.17" width="44.25" height="44.25" filterUnits="userSpaceOnUse" color-interpolation-filters="sRGB"><feFlood flood-opacity="0" result="BackgroundImageFix"/><feColorMatrix in="SourceAlpha" values="0 0 0 0 0 0 0 0 0 0 0 0 0 0 0 0 0 0 127 0" result="hardAlpha"/><feOffset dy="1"/><feGaussianBlur stdDeviation="1"/><feColorMatrix values="0 0 0 0 0 0 0 0 0 0 0 0 0 0 0 0 0 0 0.25 0"/><feBlend in2="BackgroundImageFix" result="effect1_dropShadow_3220_13316"/><feBlend in="SourceGraphic" in2="effect1_dropShadow_3220_13316" result="shape"/></filter><filter id="c" x="11.42" y="20" width="46.13" height="39.83" filterUnits="userSpaceOnUse" color-interpolation-filters="sRGB"><feFlood flood-opacity="0" result="BackgroundImageFix"/><feColorMatrix in="SourceAlpha" values="0 0 0 0 0 0 0 0 0 0 0 0 0 0 0 0 0 0 127 0" result="hardAlpha"/><feOffset dy="1"/><feGaussianBlur stdDeviation="1"/><feColorMatrix values="0 0 0 0 0 0 0 0 0 0 0 0 0 0 0 0 0 0 0.24 0"/><feBlend in2="BackgroundImageFix" result="effect1_dropShadow_3220_13316"/><feBlend in="SourceGraphic" in2="effect1_dropShadow_3220_13316" result="shape"/></filter><filter id="d" x="2.63" y="34.31" width="32.82" height="31.5" filterUnits="userSpaceOnUse" color-interpolation-filters="sRGB"><feFlood flood-opacity="0" result="BackgroundImageFix"/><feColorMatrix in="SourceAlpha" values="0 0 0 0 0 0 0 0 0 0 0 0 0 0 0 0 0 0 127 0" result="hardAlpha"/><feOffset dy="1"/><feGaussianBlur stdDeviation="1"/><feColorMatrix values="0 0 0 0 0 0 0 0 0 0 0 0 0 0 0 0 0 0 0.24 0"/><feBlend in2="BackgroundImageFix" result="effect1_dropShadow_3220_13316"/><feBlend in="SourceGraphic" in2="effect1_dropShadow_3220_13316" result="shape"/></filter><filter id="f" x="44.55" y="14.05" width="21.92" height="21.93" filterUnits="userSpaceOnUse" color-interpolation-filters="sRGB"><feFlood flood-opacity="0" result="BackgroundImageFix"/><feColorMatrix in="SourceAlpha" values="0 0 0 0 0 0 0 0 0 0 0 0 0 0 0 0 0 0 127 0" result="hardAlpha"/><feOffset dy="1"/><feGaussianBlur stdDeviation="1"/><feColorMatrix values="0 0 0 0 0 0 0 0 0 0 0 0 0 0 0 0 0 0 0.25 0"/><feBlend in2="BackgroundImageFix" result="effect1_dropShadow_3220_13316"/><feBlend in="SourceGraphic" in2="effect1_dropShadow_3220_13316" result="shape"/></filter><filter id="g" x="46.81" y="16.31" width="17.42" height="17.42" filterUnits="userSpaceOnUse" color-interpolation-filters="sRGB"><feFlood flood-opacity="0" result="BackgroundImageFix"/><feColorMatrix in="SourceAlpha" values="0 0 0 0 0 0 0 0 0 0 0 0 0 0 0 0 0 0 127 0" result="hardAlpha"/><feOffset dy="1"/><feGaussianBlur stdDeviation="1"/><feColorMatrix values="0 0 0 0 0 0 0 0 0 0 0 0 0 0 0 0 0 0 0.25 0"/><feBlend in2="BackgroundImageFix" result="effect1_dropShadow_3220_13316"/><feBlend in="SourceGraphic" in2="effect1_dropShadow_3220_13316" result="shape"/></filter><clipPath id="e"><path fill="#fff" d="M43.75 12.25h23.33v23.33H43.75z"/></clipPath></defs></svg>
