<svg width="70" height="70" fill="none" xmlns="http://www.w3.org/2000/svg"><g clip-path="url(#a)"><g filter="url(#b)"><path d="M35.3 62.18a26.89 26.89 0 1 0 0-53.78 26.89 26.89 0 0 0 0 53.78Z" fill="#339FBA"/></g><mask id="c" style="mask-type:alpha" maskUnits="userSpaceOnUse" x="8" y="8" width="55" height="55"><path d="M35.3 62.18a26.89 26.89 0 1 0 0-53.78 26.89 26.89 0 0 0 0 53.78Z" fill="#339FBA"/></mask><g mask="url(#c)"><path d="m35.52 24.87 3.67-14.5.93-3.65c1.25.21 2.47.51 3.67.9l-.92 3.65L39.14 26l11.38-15.2c1.05.67 2.06 1.42 3.03 2.24l-2.27 3.02-8.97 12 12.82-7.75 3.23-1.96c.71 1.03 1.37 2.1 1.94 3.25l-3.22 1.94-13.03 7.89 18.72-2.81a29.4 29.4 0 0 1 .53 3.75L44.8 35.14l14.47 3.53 3.64.9a27.79 27.79 0 0 1-.93 3.68l-3.64-.88-14.7-3.6 12.1 9 3 2.24a29.72 29.72 0 0 1-2.28 3.05l-3-2.22-11.91-8.87 7.63 12.74 1.93 3.22c-1.04.72-2.12 1.39-3.27 1.97l-1.91-3.2-7.76-12.95 2.63 18.69a29.51 29.51 0 0 1-3.76.56l-2.6-18.46-3.67 14.5-.93 3.65a27.41 27.41 0 0 1-3.67-.9l.92-3.64 3.73-14.72-9.12 12.19-2.26 3a28.92 28.92 0 0 1-3.03-2.24l11.24-15.02-12.82 7.76-3.23 1.94a26.5 26.5 0 0 1-1.94-3.24l3.22-1.95L25.9 38 7.2 40.8a29.37 29.37 0 0 1-.53-3.75l18.48-2.77-14.46-3.53-3.64-.9c.22-1.24.54-2.47.93-3.67l3.65.89 14.69 3.58-12.1-9-3-2.23c.7-1.07 1.45-2.09 2.28-3.06l3 2.24 11.91 8.87-7.63-12.75-1.92-3.22a27.2 27.2 0 0 1 3.26-1.97l1.93 3.21 7.74 12.94-2.62-18.69a29.55 29.55 0 0 1 3.76-.56l2.59 18.45Z" fill="#216677"/></g><g filter="url(#d)"><circle cx="35.29" cy="35.29" r="20.13" fill="#fff"/><circle cx="35.29" cy="35.29" r="21.29" stroke="#216677" stroke-width="2.33"/></g><path d="m16.72 55.09 10.82-5.64c-.02 2.31-.66 3.12-1.22 3.45-1.98 1.16-5.16-2.54-7.58-1.44-1.32.6-1.8 2.33-2.02 3.63Z" fill="#56CCF2"/><path d="m25.96 9.65 5 11.13c-2.3-.15-3.07-.84-3.36-1.41-1.05-2.05 2.83-5.01 1.87-7.49-.52-1.35-2.23-1.94-3.5-2.23Z" fill="url(#e)"/><path d="m21.62 23.43 2 3.42 2.65-2.23-1.71-3.31c-.99.7-1.96 1.41-2.94 2.12Z" fill="#56CCF2"/><path d="m44.31 16.9 2.58 1.6.9-2.51-2.3-1.28-1.18 2.2Z" fill="url(#f)"/><path d="m33.8 51.76 2.58 1.59.9-2.5c-.76-.44-1.52-.87-2.29-1.29l-1.18 2.2Z" fill="url(#g)"/><path d="m13 41.47.83 2.4 2.03-1.4-.52-2.4-2.35 1.4Z" fill="url(#h)"/><path d="m50 22.34-.85 2.4 2.47.18 1.09-2.2-2.71-.38Z" fill="url(#i)"/><path d="m49.23 11.41.77 2.5 2.12-1.19-.96-2.5-1.93 1.2Z" fill="#FFCD05"/><path d="m37.22 11.97 2.8 2.87 2.31-3.22-2.71-2.78-2.4 3.13ZM33.6 7.01l.84-2.1-2.06-.4-.81 2.04L33.6 7Z" fill="#fff"/><path d="m54.6 44.35.84-2.11-2.06-.4-.81 2.04 2.03.47Z" fill="url(#j)"/><path d="m59.27 36.18.84-2.1-2.06-.4-.82 2.04 2.04.46ZM23.1 39.1l.84-2.11-2.06-.4-.81 2.04 2.03.47ZM45.85 33.26l.84-2.1-2.06-.4-.81 2.04 2.03.46ZM12.6 37.93l.84-2.1-2.06-.4-.81 2.04 2.03.46Z" fill="#fff"/><path d="M44.98 44.38c0 .81 0 1.63-.02 2.45l2.76-.26.18-1.66-2.92-.53ZM35.5 18.56c0 1.11 0 2.22-.02 3.34l3.75-.36.24-2.25-3.96-.73Z" fill="#FFCD05"/><path d="M8.3 21.65 17 28.1c.05-1.19-.08-2.7-1.07-3.42-1.95-1.43-5.59 1.42-7.15.02-.44-.39-.82-1.19-.47-3.05Z" fill="url(#k)"/><path d="m25.35 43.84-3.38.6-1.15-6.52c-.14-.8-.25-1.52-.33-2.18-.16.29-.37.6-.63.93l-1.2 1.4-2.1-1.82 3.62-4.19 3-.53 2.17 12.3Zm10.58-8.2c.38 2.18.3 3.84-.25 4.99-.55 1.13-1.58 1.84-3.09 2.1-1.46.26-2.67-.07-3.6-1-.93-.92-1.58-2.43-1.95-4.52-.39-2.19-.3-3.86.25-5 .55-1.15 1.57-1.86 3.07-2.13a3.84 3.84 0 0 1 3.6 1.02c.94.93 1.6 2.44 1.97 4.54Zm-5.58.99c.24 1.39.5 2.33.76 2.82.27.5.6.7 1.02.63.41-.07.66-.4.73-.96.08-.57 0-1.53-.24-2.9-.24-1.36-.5-2.3-.77-2.8-.27-.53-.6-.75-1.02-.68-.4.07-.65.39-.73.95-.08.56 0 1.54.25 2.94Zm8.6-4.06c.1.65.24 1.1.4 1.37.16.27.34.38.55.34.22-.03.35-.2.4-.5.06-.3.03-.78-.09-1.43a4.43 4.43 0 0 0-.4-1.37c-.15-.27-.34-.39-.55-.35-.22.04-.36.22-.41.53-.05.3-.02.78.1 1.41Zm3.8-.7c.22 1.23.1 2.23-.33 3.01a2.95 2.95 0 0 1-2.2 1.43c-.96.17-1.79-.04-2.48-.64a4.48 4.48 0 0 1-1.34-2.69 4.4 4.4 0 0 1 .33-2.99 2.87 2.87 0 0 1 2.13-1.4c.99-.18 1.83.03 2.53.62a4.3 4.3 0 0 1 1.36 2.65Zm5.49-4.76-4.66 13.51-2.5.44 4.66-13.5 2.5-.45Zm.92 8.7c.12.65.25 1.11.41 1.38.16.26.34.38.55.34.25-.04.38-.23.42-.57.03-.35 0-.8-.1-1.37-.1-.56-.22-1-.38-1.3-.14-.32-.34-.45-.58-.41-.22.04-.35.21-.41.52-.05.31-.02.78.1 1.42Zm3.81-.7c.22 1.23.1 2.23-.34 3.01a2.94 2.94 0 0 1-2.18 1.43c-.97.17-1.8-.04-2.49-.64a4.47 4.47 0 0 1-1.34-2.68 4.4 4.4 0 0 1 .33-2.99 2.87 2.87 0 0 1 2.14-1.4c.98-.18 1.82.03 2.52.61a4.3 4.3 0 0 1 1.36 2.66Z" fill="#2B8449"/></g><defs><linearGradient id="e" x1="22.17" y1="12.73" x2="33.11" y2="10.63" gradientUnits="userSpaceOnUse"><stop stop-color="#00E3AE"/><stop offset="1" stop-color="#00C770"/></linearGradient><linearGradient id="f" x1="46.27" y1="19.06" x2="46.88" y2="14.24" gradientUnits="userSpaceOnUse"><stop stop-color="#00E3AE"/><stop offset="1" stop-color="#00C770"/></linearGradient><linearGradient id="g" x1="35.77" y1="53.91" x2="36.37" y2="49.1" gradientUnits="userSpaceOnUse"><stop stop-color="#00E3AE"/><stop offset="1" stop-color="#00C770"/></linearGradient><linearGradient id="h" x1="14.05" y1="44.12" x2="13.58" y2="39.82" gradientUnits="userSpaceOnUse"><stop stop-color="#7875FF"/><stop offset="1" stop-color="#B224EF"/></linearGradient><linearGradient id="i" x1="49.17" y1="25.08" x2="51.49" y2="21.42" gradientUnits="userSpaceOnUse"><stop stop-color="#7875FF"/><stop offset="1" stop-color="#B224EF"/></linearGradient><linearGradient id="j" x1="55.51" y1="42.27" x2="52.31" y2="43.12" gradientUnits="userSpaceOnUse"><stop stop-color="#00E3AE"/><stop offset="1" stop-color="#00C770"/></linearGradient><linearGradient id="k" x1="15.54" y1="29.98" x2="17.76" y2="22.1" gradientUnits="userSpaceOnUse"><stop stop-color="#7875FF"/><stop offset="1" stop-color="#B224EF"/></linearGradient><filter id="b" x="7.24" y="7.82" width="56.11" height="56.11" filterUnits="userSpaceOnUse" color-interpolation-filters="sRGB"><feFlood flood-opacity="0" result="BackgroundImageFix"/><feColorMatrix in="SourceAlpha" values="0 0 0 0 0 0 0 0 0 0 0 0 0 0 0 0 0 0 127 0" result="hardAlpha"/><feOffset dy=".58"/><feGaussianBlur stdDeviation=".58"/><feColorMatrix values="0 0 0 0 0 0 0 0 0 0 0 0 0 0 0 0 0 0 0.25 0"/><feBlend in2="BackgroundImageFix" result="effect1_dropShadow_3220_13321"/><feBlend in="SourceGraphic" in2="effect1_dropShadow_3220_13321" result="shape"/></filter><filter id="d" x="11.67" y="12.25" width="47.25" height="47.25" filterUnits="userSpaceOnUse" color-interpolation-filters="sRGB"><feFlood flood-opacity="0" result="BackgroundImageFix"/><feColorMatrix in="SourceAlpha" values="0 0 0 0 0 0 0 0 0 0 0 0 0 0 0 0 0 0 127 0" result="hardAlpha"/><feOffset dy=".58"/><feGaussianBlur stdDeviation=".58"/><feColorMatrix values="0 0 0 0 0 0 0 0 0 0 0 0 0 0 0 0 0 0 0.25 0"/><feBlend in2="BackgroundImageFix" result="effect1_dropShadow_3220_13321"/><feBlend in="SourceGraphic" in2="effect1_dropShadow_3220_13321" result="shape"/></filter><clipPath id="a"><path fill="#fff" d="M0 0h70v70H0z"/></clipPath></defs></svg>
